name p1_grf_mean_speed_1.2
datacolumns 13
datarows 22
range 0.0000000000 0.2100000000
endheader
time	grf_x_l_mean	grf_x_l_var	grf_y_l_mean	grf_y_l_var	grf_z_l_mean	grf_z_l_var	grf_x_r_mean	grf_x_r_var	grf_y_r_mean	grf_y_r_var	grf_z_r_mean	grf_z_r_var
0.0000000000	102.8230523518	1.0000000000	693.6638390447	1.0000000000	0.0000000000	0.0000000000	7.1158285874	1.0000000000	10.9158545709	1.0000000000	0.0000000000	0.0000000000
0.0100000000	112.6236305824	1.0000000000	681.8362635968	1.0000000000	0.0000000000	0.0000000000	10.2543118648	1.0000000000	43.5637995835	1.0000000000	0.0000000000	0.0000000000
0.0200000000	122.2704245653	1.0000000000	661.7360753083	1.0000000000	0.0000000000	0.0000000000	9.7079521755	1.0000000000	96.7376677104	1.0000000000	0.0000000000	0.0000000000
0.0300000000	130.8615518749	1.0000000000	631.6836736740	1.0000000000	0.0000000000	0.0000000000	0.0265988031	1.0000000000	166.8167127202	1.0000000000	0.0000000000	0.0000000000
0.0400000000	137.0734868348	1.0000000000	590.1401124974	1.0000000000	0.0000000000	0.0000000000	-20.5588817603	1.0000000000	246.3935479715	1.0000000000	0.0000000000	0.0000000000
0.0500000000	139.9989925621	1.0000000000	536.5888965153	1.0000000000	0.0000000000	0.0000000000	-47.6318676829	1.0000000000	328.9582895136	1.0000000000	0.0000000000	0.0000000000
0.0600000000	137.9424587917	1.0000000000	471.8494398417	1.0000000000	0.0000000000	0.0000000000	-75.0827009153	1.0000000000	410.6261285985	1.0000000000	0.0000000000	0.0000000000
0.0700000000	129.9430912301	1.0000000000	398.0682657647	1.0000000000	0.0000000000	0.0000000000	-99.4781842967	1.0000000000	487.5195251461	1.0000000000	0.0000000000	0.0000000000
0.0800000000	115.8799570253	1.0000000000	318.8986902415	1.0000000000	0.0000000000	0.0000000000	-118.5765593684	1.0000000000	554.9695647776	1.0000000000	0.0000000000	0.0000000000
0.0900000000	95.9978117204	1.0000000000	239.2508661967	1.0000000000	0.0000000000	0.0000000000	-131.3231331250	1.0000000000	609.3746641695	1.0000000000	0.0000000000	0.0000000000
0.1000000000	72.3210123966	1.0000000000	164.5474187971	1.0000000000	0.0000000000	0.0000000000	-137.7642643001	1.0000000000	649.4461159223	1.0000000000	0.0000000000	0.0000000000
0.1100000000	48.1734467158	1.0000000000	100.3428085223	1.0000000000	0.0000000000	0.0000000000	-138.6252838053	1.0000000000	676.7601661391	1.0000000000	0.0000000000	0.0000000000
0.1200000000	26.9493994690	1.0000000000	51.2432300267	1.0000000000	0.0000000000	0.0000000000	-135.0471076140	1.0000000000	694.4004765264	1.0000000000	0.0000000000	0.0000000000
0.1300000000	11.3379496490	1.0000000000	18.9671870722	1.0000000000	0.0000000000	0.0000000000	-127.9947929412	1.0000000000	704.5974699466	1.0000000000	0.0000000000	0.0000000000
0.1400000000	2.2241689047	1.0000000000	1.6696912268	1.0000000000	0.0000000000	0.0000000000	-118.7503274970	1.0000000000	708.3365472376	1.0000000000	0.0000000000	0.0000000000
0.1500000000	0.0000000000	1.0000000000	0.0000000000	1.0000000000	0.0000000000	0.0000000000	-108.4205267945	1.0000000000	706.6636403230	1.0000000000	0.0000000000	0.0000000000
0.1600000000	0.0000000000	1.0000000000	0.0000000000	1.0000000000	0.0000000000	0.0000000000	-97.6962570000	1.0000000000	700.5585225381	1.0000000000	0.0000000000	0.0000000000
0.1700000000	0.0000000000	1.0000000000	0.0000000000	1.0000000000	0.0000000000	0.0000000000	-86.7803370838	1.0000000000	689.9613810384	1.0000000000	0.0000000000	0.0000000000
0.1800000000	0.0000000000	1.0000000000	0.0000000000	1.0000000000	0.0000000000	0.0000000000	-76.0552672708	1.0000000000	674.5992258118	1.0000000000	0.0000000000	0.0000000000
0.1900000000	0.0000000000	1.0000000000	0.0000000000	1.0000000000	0.0000000000	0.0000000000	-65.6992610698	1.0000000000	655.5459821895	1.0000000000	0.0000000000	0.0000000000
0.2000000000	0.0000000000	1.0000000000	0.0000000000	1.0000000000	0.0000000000	0.0000000000	-56.2049338316	1.0000000000	634.6792227522	1.0000000000	0.0000000000	0.0000000000
0.2100000000	0.0918315399	1.0000000000	0.2208483162	1.0000000000	0.0000000000	0.0000000000	-47.7395521938	1.0000000000	613.2716386345	1.0000000000	0.0000000000	0.0000000000
